<svg width="32" height="32" viewBox="0 0 32 32" xmlns="http://www.w3.org/2000/svg">
  <rect width="32" height="32" rx="6" fill="#22C55E"/>
  <g transform="translate(4, 5) scale(0.069)">
    <path d="M3233.04 4337 3224.27 4337 3162.89 4337 3162.89 4354.56 3207.75 4354.56 3112.32 4495.95 3009.99 4426.29 3003.38 4421.8 2998.3 4427.96 2915 4528.9 2928.52 4540.08 3006.73 4445.31 3109.73 4515.42 3117 4520.37 3121.93 4513.07 3215.5 4374.45 3215.5 4416 3233.04 4416 3233.04 4337Z" fill="#FFFFFF" fill-rule="evenodd" transform="translate(-2915, -4335)"/>
    <path d="M3262.93 4586.54 3256.47 4580.66 3253.96 4578.38 3208.24 4536.78 3196.44 4549.76 3227.89 4578.38 3135.09 4578.38 3036.58 4505.49 3030.05 4500.66 3024.73 4506.8 2967.74 4572.63 2981 4584.13 3032.67 4524.43 3126.99 4594.22 3129.31 4595.93 3132.2 4595.93 3230.88 4595.93 3204.6 4625.17 3217.63 4636.92 3254.47 4595.93 3257.09 4593.03 3262.93 4586.54Z" fill="#FFFFFF" fill-rule="evenodd" transform="translate(-2915, -4335)"/>
  </g>
</svg>
